HIERARCHY
ROOT RootJoint
{
    OFFSET   0.000000   0.000000   0.000000
    CHANNELS 6 Xposition Yposition Zposition Xrotation Yrotation Zrotation
    JOINT lHip
    {
        OFFSET   0.100000  -0.051395   0.000000
        CHANNELS 3 Xrotation Yrotation Zrotation
        JOINT lKnee
        {
            OFFSET   0.000000  -0.410000   0.000000
            CHANNELS 3 Xrotation Yrotation Zrotation
            JOINT lAnkle
            {
                OFFSET   0.000000  -0.390000   0.000000
                CHANNELS 3 Xrotation Yrotation Zrotation
                JOINT lToeJoint
                {
                    OFFSET   0.000000  -0.050000   0.130000
                    CHANNELS 3 Xrotation Yrotation Zrotation
                    End Site
                    {
                        OFFSET   0.010000   0.002000   0.060000
                    }
                }
            }
        }
    }
    JOINT rHip
    {
        OFFSET  -0.100000  -0.051395   0.000000
        CHANNELS 3 Xrotation Yrotation Zrotation
        JOINT rKnee
        {
            OFFSET   0.000000  -0.410000   0.000000
            CHANNELS 3 Xrotation Yrotation Zrotation
            JOINT rAnkle
            {
                OFFSET   0.000000  -0.390000   0.000000
                CHANNELS 3 Xrotation Yrotation Zrotation
                JOINT rToeJoint
                {
                    OFFSET   0.000000  -0.050000   0.130000
                    CHANNELS 3 Xrotation Yrotation Zrotation
                    End Site
                    {
                        OFFSET  -0.010000   0.002000   0.060000
                    }
                }
            }
        }
    }
    JOINT pelvis_lowerback
    {
        OFFSET   0.000000   0.093605   0.000000
        CHANNELS 3 Xrotation Yrotation Zrotation
        JOINT lowerback_torso
        {
            OFFSET   0.000000   0.100000   0.000000
            CHANNELS 3 Xrotation Yrotation Zrotation
            JOINT torso_head
            {
                OFFSET   0.000000   0.282350   0.000000
                CHANNELS 3 Xrotation Yrotation Zrotation
                End Site
                {
                    OFFSET   0.000000   0.192650   0.000000
                }
            }
            JOINT lTorso_Clavicle
            {
                OFFSET   0.001000   0.157500   0.000000
                CHANNELS 3 Xrotation Yrotation Zrotation
                JOINT lShoulder
                {
                    OFFSET   0.117647   0.000000   0.000000
                    CHANNELS 3 Xrotation Yrotation Zrotation
                    JOINT lElbow
                    {
                        OFFSET   0.245000   0.000000   0.000000
                        CHANNELS 3 Xrotation Yrotation Zrotation
                        JOINT lWrist
                        {
                            OFFSET   0.240000   0.000000   0.000000
                            CHANNELS 3 Xrotation Yrotation Zrotation
                            End Site
                            {
                                OFFSET   0.116353  -0.002500   0.000000
                            }
                        }
                    }
                }
            }
            JOINT rTorso_Clavicle
            {
                OFFSET  -0.001000   0.157500   0.000000
                CHANNELS 3 Xrotation Yrotation Zrotation
                JOINT rShoulder
                {
                    OFFSET  -0.117647   0.000000   0.000000
                    CHANNELS 3 Xrotation Yrotation Zrotation
                    JOINT rElbow
                    {
                        OFFSET  -0.245000   0.000000   0.000000
                        CHANNELS 3 Xrotation Yrotation Zrotation
                        JOINT rWrist
                        {
                            OFFSET  -0.240000   0.000000   0.000000
                            CHANNELS 3 Xrotation Yrotation Zrotation
                            End Site
                            {
                                OFFSET  -0.116353  -0.002500   0.000000
                            }
                        }
                    }
                }
            }
        }
    }
}
MOTION
Frames: 11
Frame Time:   0.016667
  1.758743   0.864373  -4.728666   1.361216   1.713047  -3.389595   8.438932   2.244912   1.293078  22.375813  -2.634080  -0.870543   5.123807  -1.189536  -4.827169   0.000002  -0.000004   0.000002 -22.549108   1.494529   6.097157  10.991063   1.254018   0.683224   7.573675   1.567309  -0.338009   0.000001  -0.000011  -0.000005   2.164228  -1.246931   1.013906   8.911367  -4.739655   4.100150  -4.864274   5.090230  -1.108542  -1.203863 -10.835064 -14.793037  27.499934 -39.907698 -47.695982   1.250200 -25.205947   5.857922  -1.565584  -8.950685  19.082686   0.090986   3.265405  16.524402  30.743317  43.535422  38.129225  -0.880010  16.554106  -2.136931  -0.232978   9.388064  -3.447436
  1.756015   0.864577  -4.716283   1.297974   1.925922  -4.019690   6.349507   2.183064   2.484373  26.924514  -2.681764  -1.137459   8.040922  -1.078505  -6.060646   0.000004  -0.000010   0.000004 -21.745807   1.489951   6.825165  11.164097   1.015296   0.809879   6.746305   1.433340  -0.702800   0.000002  -0.000014  -0.000004   2.181169  -1.325352   1.180902   9.025567  -5.023565   4.782357  -4.564847   5.268682  -1.498461  -1.076187 -10.924945 -14.087466  27.089347 -39.715429 -48.912794   1.174434 -24.211306   5.296911  -2.327670  -9.080774  18.779311   0.098567   3.120077  16.565025  30.982559  43.850457  37.421688  -0.856650  16.396230  -1.986029   0.348420   9.153796  -2.648921
  1.753325   0.864756  -4.703874   1.225103   2.139239  -4.643032   4.230500   2.055944   3.663725  31.468944  -2.717137  -1.398121  11.005377  -1.002458  -7.322866   0.000005  -0.000014   0.000006 -20.924555   1.510092   7.549892  11.323949   0.771378   0.937289   5.918058   1.300537  -1.068306   0.000003  -0.000015  -0.000004   2.200463  -1.398208   1.347269   9.150490  -5.283839   5.461984  -4.269392   5.419482  -1.893504  -0.948475 -10.987607 -13.385886  26.749681 -39.566890 -50.053640   1.114554 -23.284507   4.768675  -2.983963  -9.217560  18.555343   0.105779   2.982439  16.607875  31.250202  44.142579  36.699480  -0.837857  16.286685  -1.867152   0.919224   8.952153  -1.902227
  1.750840   0.864793  -4.691324   1.088652   2.352319  -5.229772   1.943061   1.764012   4.786160  35.990196  -2.589607  -1.653375  14.223918  -0.844851  -8.727560   0.000003  -0.000010   0.000003 -20.005312   1.620926   8.255593  11.409027   0.497046   1.065471   5.088489   1.150342  -1.429448   0.000005  -0.000012  -0.000003   2.231612  -1.440661   1.510043   9.317866  -5.419990   6.123321  -4.002358   5.427409  -2.311454  -0.827012 -10.907624 -12.708571  26.765680 -39.692707 -50.804058   1.087574 -22.733938   4.392728  -3.053086  -9.411627  18.777382   0.110497   2.887073  16.662907  31.642779  44.317482  35.922588  -0.846192  16.442662  -1.924144   1.417377   8.891444  -1.449706
  1.748458   0.864800  -4.678705   0.926610   2.549647  -5.790474  -0.332984   1.393774   5.855506  40.405283  -2.455346  -1.924860  17.302634  -0.734066 -10.102979   0.000003  -0.000006   0.000001 -19.051130   1.759148   8.942402  11.476522   0.229690   1.192054   4.267745   1.009886  -1.792724   0.000006  -0.000008  -0.000002   2.267816  -1.469024   1.667693   9.502191  -5.498280   6.762290  -3.750292   5.390910  -2.726897  -0.713643 -10.781497 -12.064964  26.901748 -39.873342 -51.412610   1.073278 -22.336448   4.093828  -2.931419  -9.605504  19.092950   0.114113   2.810512  16.727245  32.066605  44.443581  35.136290  -0.863018  16.684115  -2.037035   1.864778   8.873870  -1.123855
  1.746443   0.864780  -4.665857   0.679232   2.655232  -6.246361  -2.404012   0.922062   6.741213  44.259066  -2.375713  -2.237262  19.343726  -0.640966 -11.140670   0.000006  -0.000004  -0.000001 -17.996649   1.916460   9.552297  11.519713   0.030624   1.307945   3.500319   0.921963  -2.163721   0.000006  -0.000003  -0.000001   2.319579  -1.450635   1.800639   9.732273  -5.389697   7.294519  -3.551329   5.259937  -3.106301  -0.633148 -10.549361 -11.580557  27.357141 -40.075508 -51.621761   1.086308 -22.404917   4.062537  -2.352602  -9.738323  19.475363   0.113828   2.795080  16.830584  32.522327  44.433604  34.366606  -0.899661  17.130185  -2.281471   2.106200   8.941141  -1.200966
  1.744494   0.864756  -4.652967   0.416753   2.745817  -6.682889  -4.431482   0.408675   7.578665  48.010939  -2.323175  -2.559790  21.197201  -0.572489 -12.118876   0.000010  -0.000003  -0.000003 -16.925247   2.086313  10.145652  11.558767  -0.155970   1.421976   2.742231   0.847595  -2.536842   0.000007   0.000003   0.000001   2.374106  -1.423643   1.929067   9.969339  -5.245399   7.806642  -3.362928   5.110851  -3.478636  -0.560405 -10.297551 -11.125688  27.871668 -40.282331 -51.756330   1.104131 -22.558109   4.079866  -1.689795  -9.855953  19.871293   0.112833   2.790761  16.941014  32.982607  44.395264  33.601074  -0.937862  17.613617  -2.550142   2.310407   9.023085  -1.351661
  1.743051   0.865121  -4.639447   0.087003   2.616658  -6.854261  -6.355344  -0.021224   7.891560  50.724902  -2.548843  -2.990613  21.026410  -0.501091 -10.923262   0.000011  -0.000002  -0.000002 -15.671971   2.234019  10.525736  11.467440  -0.130813   1.463676   2.029516   0.901955  -2.858004   0.000006   0.000000   0.000000   2.426824  -1.328644   1.986214  10.165466  -4.843476   8.018925  -3.148958   4.913687  -3.732133  -0.542706  -9.883771 -10.945362  28.546658 -40.209620 -51.576096   1.150756 -23.182276   4.369517  -0.866334  -9.935119  20.083368   0.108932   2.826149  17.090216  33.305767  44.236183  33.026189  -0.986806  18.187615  -2.884536   2.265701   9.127476  -1.911392
  1.741688   0.865521  -4.625869  -0.240533   2.465098  -6.993393  -8.245850  -0.442269   8.152347  53.263643  -2.814855  -3.415104  20.634473  -0.449220  -9.819622   0.000011  -0.000001  -0.000002 -14.411701   2.385299  10.866005  11.368334  -0.083038   1.504333   1.322325   0.975071  -3.178461   0.000005  -0.000002  -0.000001   2.475935  -1.227532   2.034033  10.342653  -4.419489   8.191415  -2.919612   4.711452  -3.965512  -0.530787  -9.451736 -10.787952  29.189523 -40.079791 -51.412091   1.202873 -23.833631   4.672404  -0.066266 -10.015326  20.280562   0.105111   2.861108  17.227823  33.579497  44.069594  32.513983  -1.033627  18.757535  -3.222437   2.217701   9.225106  -2.477772
  1.740770   0.866114  -4.611970  -0.553957   2.185187  -6.952421  -9.964606  -0.763186   8.195034  54.843601  -3.207490  -3.854748  19.033870  -0.496196  -9.223545   0.000001   0.000000   0.000000 -13.108641   2.516031  11.002220  11.226467   0.089432   1.539291   0.644459   1.133269  -3.497484   0.000004  -0.000002  -0.000001   2.505698  -1.093063   2.030973  10.424011  -3.877841   8.152241  -2.601272   4.485690  -4.091627  -0.544015  -8.919568 -10.754744  29.658754 -39.643727 -51.333583   1.270058 -24.635430   5.040213   0.602887 -10.115817  20.390598   0.102171   2.893758  17.301630  33.596629  43.873402  32.332601  -1.083929  19.303860  -3.576953   2.146750   9.283811  -3.080314
  1.739982   0.866678  -4.597999  -0.854230   1.878132  -6.877154 -11.646101  -1.061847   8.178591  56.093338  -3.604614  -4.274594  17.342161  -0.577904  -8.764597  -0.000007  -0.000001   0.000003 -11.812736   2.626171  11.086741  11.095885   0.296317   1.575400  -0.034205   1.318161  -3.813780   0.000002  -0.000001  -0.000001   2.527918  -0.950717   2.016176  10.471761  -3.309194   8.064091  -2.255591   4.244686  -4.179394  -0.561974  -8.369133 -10.745206  30.040337 -39.104890 -51.326021   1.345281 -25.467664   5.423657   1.196617 -10.223430  20.481174   0.099807   2.923438  17.341692  33.513309  43.668396  32.282789  -1.133530  19.849230  -3.939348   2.089963   9.325640  -3.662262
